<svg width="900" height="560" viewBox="0 0 900 560" fill="none" xmlns="http://www.w3.org/2000/svg">
  <rect width="900" height="560" fill="#0B0B12"/>
  <rect x="50" y="56" width="800" height="448" rx="24" fill="#12151D"/>
  <rect x="102" y="128" width="156" height="112" rx="18" fill="#1A1F2A" stroke="#fff" stroke-opacity=".08"/>
  <rect x="372" y="128" width="156" height="112" rx="18" fill="#1A1F2A" stroke="#68D4CC" stroke-opacity=".45"/>
  <rect x="642" y="128" width="156" height="112" rx="18" fill="#1A1F2A" stroke="#fff" stroke-opacity=".08"/>
  <rect x="102" y="326" width="696" height="96" rx="18" fill="#0E1118" stroke="#fff" stroke-opacity=".08"/>
  <path d="M258 184h114M528 184h114M450 240v86" stroke="#68D4CC" stroke-width="6" stroke-linecap="round"/>
  <rect x="136" y="168" width="86" height="14" rx="7" fill="#fff" fill-opacity=".18"/>
  <rect x="406" y="168" width="86" height="14" rx="7" fill="#68D4CC"/>
  <rect x="676" y="168" width="86" height="14" rx="7" fill="#fff" fill-opacity=".18"/>
  <rect x="148" y="362" width="156" height="20" rx="10" fill="#68D4CC" fill-opacity=".65"/>
  <rect x="336" y="362" width="210" height="20" rx="10" fill="#fff" fill-opacity=".12"/>
  <rect x="578" y="362" width="166" height="20" rx="10" fill="#E8E1CD" fill-opacity=".18"/>
</svg>
