<svg width="900" height="560" viewBox="0 0 900 560" fill="none" xmlns="http://www.w3.org/2000/svg">
  <rect width="900" height="560" fill="#0B0B12"/>
  <rect x="44" y="44" width="812" height="472" rx="24" fill="#12151D" stroke="#68D4CC" stroke-opacity=".25"/>
  <rect x="84" y="88" width="250" height="340" rx="18" fill="#1A1F2A"/>
  <circle cx="209" cy="258" r="94" fill="#68D4CC" fill-opacity=".13" stroke="#68D4CC" stroke-opacity=".55" stroke-width="3"/>
  <path d="M145 258c34-48 94-50 128 0-34 48-94 50-128 0Z" fill="#68D4CC" fill-opacity=".12" stroke="#E8E1CD" stroke-opacity=".55"/>
  <rect x="378" y="102" width="330" height="22" rx="11" fill="#E8E1CD" fill-opacity=".78"/>
  <rect x="378" y="146" width="420" height="12" rx="6" fill="#fff" fill-opacity=".16"/>
  <rect x="378" y="174" width="360" height="12" rx="6" fill="#fff" fill-opacity=".10"/>
  <rect x="378" y="230" width="360" height="150" rx="18" fill="#0E1118" stroke="#fff" stroke-opacity=".08"/>
  <path d="M410 336c42-76 83-24 124-79 53-72 109-4 174-54" stroke="#68D4CC" stroke-width="5" stroke-linecap="round"/>
  <rect x="378" y="414" width="126" height="46" rx="12" fill="#68D4CC"/>
  <rect x="526" y="414" width="166" height="46" rx="12" fill="#fff" fill-opacity=".08"/>
</svg>
