<svg width="900" height="560" viewBox="0 0 900 560" fill="none" xmlns="http://www.w3.org/2000/svg">
  <rect width="900" height="560" fill="#0B0B12"/>
  <rect x="50" y="56" width="800" height="448" rx="24" fill="#12151D"/>

  <!-- Left: CI/CD & Training -->
  <rect x="120" y="150" width="160" height="180" rx="18" fill="#1A1F2A" stroke="#fff" stroke-opacity=".08"/>
  <rect x="144" y="184" width="112" height="14" rx="7" fill="#fff" fill-opacity=".18"/>
  <path d="M144 230h112M144 260h70" stroke="#fff" stroke-opacity=".12" stroke-width="4" stroke-linecap="round"/>
  <circle cx="230" cy="270" r="14" fill="#68D4CC" fill-opacity=".25"/>

  <!-- Center: MLflow / Registry -->
  <circle cx="450" cy="240" r="70" fill="#1A1F2A" stroke="#68D4CC" stroke-opacity=".45" stroke-width="2"/>
  <circle cx="450" cy="240" r="50" fill="#68D4CC" fill-opacity=".13" stroke="#68D4CC" stroke-opacity=".6"/>
  <rect x="420" y="233" width="60" height="14" rx="7" fill="#68D4CC"/>

  <!-- Right: Deploy & Monitoring -->
  <rect x="620" y="150" width="160" height="180" rx="18" fill="#1A1F2A" stroke="#fff" stroke-opacity=".08"/>
  <rect x="644" y="184" width="112" height="14" rx="7" fill="#fff" fill-opacity=".18"/>
  <!-- Grafana-like chart line -->
  <path d="M644 290l24-30 20 16 30-40 20 18 18-24" stroke="#68D4CC" stroke-width="4" stroke-linecap="round" stroke-linejoin="round"/>

  <!-- Connection Arrows/Loops -->
  <path d="M280 240h50M570 240h50" stroke="#68D4CC" stroke-width="5" stroke-linecap="round"/>
  <path d="M700 150c0-60-250-60-250-60S200 90 200 150" stroke="#fff" stroke-opacity=".08" stroke-width="4" stroke-dasharray="8 6"/>

  <!-- Lower summary bar -->
  <rect x="120" y="370" width="660" height="70" rx="16" fill="#0E1118" stroke="#fff" stroke-opacity=".08"/>
  <rect x="150" y="395" width="120" height="20" rx="10" fill="#fff" fill-opacity=".12"/>
  <rect x="290" y="395" width="180" height="20" rx="10" fill="#68D4CC" fill-opacity=".65"/>
  <rect x="490" y="395" width="260" height="20" rx="10" fill="#E8E1CD" fill-opacity=".18"/>
</svg>
