<svg width="900" height="560" viewBox="0 0 900 560" fill="none" xmlns="http://www.w3.org/2000/svg">
  <rect width="900" height="560" fill="#0B0B12"/>
  <rect x="56" y="54" width="788" height="452" rx="24" fill="#12151D"/>
  <rect x="98" y="96" width="704" height="360" rx="20" fill="#0E1118" stroke="#fff" stroke-opacity=".08"/>
  <path d="M120 394h660l-118-116c-28-28-72-25-96 7l-42 56-93-104c-29-33-81-32-108 3L120 394Z" fill="#68D4CC" fill-opacity=".13"/>
  <rect x="172" y="172" width="190" height="122" rx="10" stroke="#68D4CC" stroke-width="5"/>
  <rect x="506" y="210" width="152" height="112" rx="10" stroke="#E8E1CD" stroke-opacity=".75" stroke-width="5"/>
  <rect x="384" y="126" width="96" height="72" rx="10" stroke="#68D4CC" stroke-opacity=".65" stroke-width="4"/>
  <rect x="176" y="304" width="88" height="26" rx="13" fill="#68D4CC"/>
  <rect x="510" y="332" width="118" height="26" rx="13" fill="#E8E1CD" fill-opacity=".22"/>
</svg>
